<svg xmlns="http://www.w3.org/2000/svg" viewBox="0 0 32 32" fill="none">
  <defs>
    <linearGradient id="g" x1="4" y1="4" x2="28" y2="28" gradientUnits="userSpaceOnUse">
      <stop stop-color="#ff4fa3"/>
      <stop offset="1" stop-color="#3b82f6"/>
    </linearGradient>
  </defs>
  <rect width="32" height="32" rx="8" fill="url(#g)" opacity=".15"/>
  <path fill="url(#g)" d="M8 9c0-.55.45-1 1-1h5c1.1 0 2 .9 2 2v13.5c-.5-.35-1.15-.5-2-.5H9c-.55 0-1-.45-1-1V9Zm16 0c0-.55-.45-1-1-1h-5c-1.1 0-2 .9-2 2v13.5c.5-.35 1.15-.5 2-.5h5c.55 0 1-.45 1-1V9Z"/>
  <path fill="#ff4fa3" d="M16 10.5c.3-.35.7-.5 1.2-.5H22c.55 0 1 .45 1 1v10.2c-.45-.25-.95-.35-1.5-.35h-4.3c-.6 0-1.15.15-1.7.45v-11.3l.3.5Z" opacity=".35"/>
</svg>
